name rise44.8762peak52.3436fall86.788.mot
datacolumns 19
datarows 18
range 7.06496700000000 7.09330400000000
endheader
time	ground_force1_vx	ground_force1_vy	ground_force1_vz	ground_force1_px	ground_force1_py	ground_force1_pz	ground_force2_vx	ground_force2_vy	ground_force2_vz	ground_force2_px	ground_force2_py	ground_force2_pz	ground_torque1_x	ground_torque1_y	ground_torque1_z	ground_torque2_x	ground_torque2_y	ground_torque2_z	
7.06496700000000	10.13067000000000	733.01044400000001	40.84826200000000	0.17762500000000	0.00000000000000	0.08671900000000	0.00000000000000	0.00000000000000	0.00000000000000	0.00000000000000	0.00000000000000	0.00000000000000	0.00000000000000	13.10167000000000	0.00000000000000	0.00000000000000	0.00000000000000	0.00000000000000	
7.06663500000000	9.57266800000000	733.54265199999998	40.92206700000000	0.17637700000000	0.00000000000000	0.08664200000000	0.00000000000000	0.00000000000000	0.00000000000000	0.00000000000000	0.00000000000000	0.00000000000000	0.00000000000000	13.16634300000000	0.00000000000000	0.00000000000000	0.00000000000000	0.00000000000000	
7.06830200000000	9.00740200000000	734.07715900000005	40.99805400000000	0.17511900000000	0.00000000000000	0.08656600000000	0.00000000000000	0.00000000000000	0.00000000000000	0.00000000000000	0.00000000000000	0.00000000000000	0.00000000000000	13.23249400000000	0.00000000000000	0.00000000000000	0.00000000000000	0.00000000000000	
7.06997500000000	8.43533500000000	734.61445400000002	41.07622300000000	0.17385300000000	0.00000000000000	0.08649100000000	0.00000000000000	0.00000000000000	0.00000000000000	0.00000000000000	0.00000000000000	0.00000000000000	0.00000000000000	13.30009800000000	0.00000000000000	0.00000000000000	0.00000000000000	0.00000000000000	
7.07164200000000	7.85695500000000	735.15502400000003	41.15657600000000	0.17257900000000	0.00000000000000	0.08641700000000	0.00000000000000	0.00000000000000	0.00000000000000	0.00000000000000	0.00000000000000	0.00000000000000	0.00000000000000	13.36912600000000	0.00000000000000	0.00000000000000	0.00000000000000	0.00000000000000	
7.07330800000000	7.27276700000000	735.69935899999996	41.23912000000000	0.17130000000000	0.00000000000000	0.08634500000000	0.00000000000000	0.00000000000000	0.00000000000000	0.00000000000000	0.00000000000000	0.00000000000000	0.00000000000000	13.43955200000000	0.00000000000000	0.00000000000000	0.00000000000000	0.00000000000000	
7.07497300000000	6.68329500000000	736.24793899999997	41.32386000000000	0.17001600000000	0.00000000000000	0.08627300000000	0.00000000000000	0.00000000000000	0.00000000000000	0.00000000000000	0.00000000000000	0.00000000000000	0.00000000000000	13.51134500000000	0.00000000000000	0.00000000000000	0.00000000000000	0.00000000000000	
7.07663800000000	6.08907700000000	736.80123500000002	41.41080500000000	0.16873000000000	0.00000000000000	0.08620200000000	0.00000000000000	0.00000000000000	0.00000000000000	0.00000000000000	0.00000000000000	0.00000000000000	0.00000000000000	13.58447500000000	0.00000000000000	0.00000000000000	0.00000000000000	0.00000000000000	
7.07830600000000	5.49066400000000	737.35970199999997	41.49996300000000	0.16744200000000	0.00000000000000	0.08613100000000	0.00000000000000	0.00000000000000	0.00000000000000	0.00000000000000	0.00000000000000	0.00000000000000	0.00000000000000	13.65890900000000	0.00000000000000	0.00000000000000	0.00000000000000	0.00000000000000	
7.07996800000000	4.88861800000000	737.92377899999997	41.59134600000000	0.16615400000000	0.00000000000000	0.08606200000000	0.00000000000000	0.00000000000000	0.00000000000000	0.00000000000000	0.00000000000000	0.00000000000000	0.00000000000000	13.73461100000000	0.00000000000000	0.00000000000000	0.00000000000000	0.00000000000000	
7.08164000000000	4.28351000000000	738.49387899999999	41.68496200000000	0.16486800000000	0.00000000000000	0.08599400000000	0.00000000000000	0.00000000000000	0.00000000000000	0.00000000000000	0.00000000000000	0.00000000000000	0.00000000000000	13.81154400000000	0.00000000000000	0.00000000000000	0.00000000000000	0.00000000000000	
7.08330900000000	3.67591500000000	739.07039399999996	41.78082200000000	0.16358500000000	0.00000000000000	0.08592600000000	0.00000000000000	0.00000000000000	0.00000000000000	0.00000000000000	0.00000000000000	0.00000000000000	0.00000000000000	13.88966900000000	0.00000000000000	0.00000000000000	0.00000000000000	0.00000000000000	
7.08497100000000	3.06641500000000	739.65368500000000	41.87893800000000	0.16230600000000	0.00000000000000	0.08585800000000	0.00000000000000	0.00000000000000	0.00000000000000	0.00000000000000	0.00000000000000	0.00000000000000	0.00000000000000	13.96894300000000	0.00000000000000	0.00000000000000	0.00000000000000	0.00000000000000	
7.08663400000000	2.45559000000000	740.24408000000005	41.97931900000000	0.16103400000000	0.00000000000000	0.08579200000000	0.00000000000000	0.00000000000000	0.00000000000000	0.00000000000000	0.00000000000000	0.00000000000000	0.00000000000000	14.04932100000000	0.00000000000000	0.00000000000000	0.00000000000000	0.00000000000000	
7.08830600000000	1.84402100000000	740.84187499999996	42.08197600000000	0.15977000000000	0.00000000000000	0.08572600000000	0.00000000000000	0.00000000000000	0.00000000000000	0.00000000000000	0.00000000000000	0.00000000000000	0.00000000000000	14.13075400000000	0.00000000000000	0.00000000000000	0.00000000000000	0.00000000000000	
7.08997000000000	1.23228600000000	741.44732699999997	42.18691800000000	0.15851500000000	0.00000000000000	0.08566100000000	0.00000000000000	0.00000000000000	0.00000000000000	0.00000000000000	0.00000000000000	0.00000000000000	0.00000000000000	14.21319000000000	0.00000000000000	0.00000000000000	0.00000000000000	0.00000000000000	
7.09163600000000	0.62095600000000	742.06065300000000	42.29415500000000	0.15727000000000	0.00000000000000	0.08559600000000	0.00000000000000	0.00000000000000	0.00000000000000	0.00000000000000	0.00000000000000	0.00000000000000	0.00000000000000	14.29657600000000	0.00000000000000	0.00000000000000	0.00000000000000	0.00000000000000	
7.09330400000000	0.01059400000000	742.68203100000005	42.40369500000000	0.15603700000000	0.00000000000000	0.08553100000000	0.00000000000000	0.00000000000000	0.00000000000000	0.00000000000000	0.00000000000000	0.00000000000000	0.00000000000000	14.38085100000000	0.00000000000000	0.00000000000000	0.00000000000000	0.00000000000000	
